<svg xmlns="http://www.w3.org/2000/svg" width="18" height="27" fill="none"><path fill="#9B9591" d="M7.643 26.985c-.12.02-.241.02-.36 0a1.245 1.245 0 0 1-.646-.436 1.14 1.14 0 0 1-.239-.717v-.157l1.35-9.039H1.24c-.22 0-.435-.056-.623-.165a1.165 1.165 0 0 1-.442-.447 1.163 1.163 0 0 1 0-1.224l3-4.968L9.321.552c.137-.22.348-.388.598-.479.251-.09.527-.097.782-.02.26.075.487.228.646.436.16.208.244.46.239.717v.157l-1.35 9.039h6.523c.22 0 .435.056.623.164.187.108.34.263.442.448a1.164 1.164 0 0 1 0 1.224l-3 4.968-6.147 9.28c-.113.16-.268.29-.45.378a1.238 1.238 0 0 1-.585.12Zm-4.739-12.54h5.999c.165.001.328.034.48.096.153.061.29.151.406.263.115.113.207.246.268.391.061.146.092.302.09.46v.156l-.885 5.893 3.75-5.694 2.159-3.53H9.172a1.316 1.316 0 0 1-.48-.097 1.265 1.265 0 0 1-.406-.263 1.192 1.192 0 0 1-.268-.391 1.143 1.143 0 0 1-.09-.46v-.156l.885-5.893-3.75 5.694-2.159 3.53Z"/></svg>