<svg xmlns="http://www.w3.org/2000/svg" width="25" height="25" fill="none"><path fill="#4859F0" d="M9.995 14.041a14.355 14.355 0 0 0 5.225 3.454l2.661-2.163a.466.466 0 0 1 .537 0l4.942 3.252c.188.115.347.273.464.462a1.462 1.462 0 0 1-.23 1.83l-2.317 2.336c-.331.335-.739.58-1.186.715-.447.135-.92.154-1.377.057a24.61 24.61 0 0 1-12.108-6.49A24.51 24.51 0 0 1 .06 5.362 2.78 2.78 0 0 1 .12 3.977c.136-.449.383-.854.717-1.176l2.4-2.365A1.385 1.385 0 0 1 4.992.214c.182.115.335.27.45.453l3.29 4.982a.46.46 0 0 1 0 .54L6.563 8.85a14.258 14.258 0 0 0 3.432 5.191Z"/></svg>