<svg xmlns="http://www.w3.org/2000/svg" width="86" height="82" fill="none"><path stroke="#4859F0" stroke-linecap="round" stroke-linejoin="round" stroke-width="6.5" d="M74.105 35.158a31.158 31.158 0 0 0-62.316 0"/><path stroke="#4859F0" stroke-width="6.5" d="M74.105 62.421v1.947a7.79 7.79 0 0 1-7.79 7.79h-13.63M4 52.443v-7.307a7.79 7.79 0 0 1 5.9-7.556l6.777-1.698a2.336 2.336 0 0 1 2.902 2.267v21.277a2.336 2.336 0 0 1-2.905 2.27l-6.777-1.694A7.79 7.79 0 0 1 4 52.447v-.004Zm77.895 0v-7.307a7.789 7.789 0 0 0-5.9-7.556l-6.778-1.698a2.337 2.337 0 0 0-2.901 2.267v21.277a2.336 2.336 0 0 0 2.901 2.27l6.777-1.694a7.79 7.79 0 0 0 5.9-7.555v-.004Z"/><path stroke="#4859F0" stroke-width="6.5" d="M48.79 78H37.104a5.842 5.842 0 1 1 0-11.684H48.79a5.842 5.842 0 0 1 0 11.684Z"/></svg>