<svg xmlns="http://www.w3.org/2000/svg" width="61" height="80" fill="none"><mask id="a" width="61" height="80" x="0" y="0" fill="#000" maskUnits="userSpaceOnUse"><path fill="#fff" d="M0 0h61v80H0z"/><path d="m41.246 73.483-16.632 4.441a2.238 2.238 0 0 1-2.731-1.571 2.229 2.229 0 0 1 1.577-2.723l16.632-4.441a2.238 2.238 0 0 1 2.731 1.572 2.228 2.228 0 0 1-1.577 2.722Zm-7.7-50.94c-.15 2.02-1.296 3.159-3.077 3.13-1.773-.028-3.063-1.24-3.02-3.083.041-1.794 1.17-2.973 3.09-2.952 1.919.02 2.87 1.15 3.006 2.904Zm21.322-6.81C48.252 4.84 35.147-.452 22.972 3.093 12.318 6.197 5.371 13.208 2.845 23.991c-2.5 10.673.612 19.853 8.488 27.54 1.847 1.804 3.545 3.988 4.586 6.318 1.044 2.336 1.38 3.067 3.922 2.453 3.531-.851 7.015-1.898 10.546-2.752 1.81-.438 2.498-1.446 2.486-3.264-.049-7.34-.032-14.68-.005-22.02.005-1.661-.519-3.03-2.312-3.07-1.816-.043-2.372 1.28-2.357 2.973.042 4.759.013 9.518.013 14.277 0 7.655 0 7.655-7.553 8.755-2.871-3.279-5.486-6.227-8.058-9.21-9.234-10.708-7.545-26.537 3.979-34.735 8.28-5.89 17.173-6.218 26.04-1.245 8.234 4.618 12.714 14.132 11.526 23.336-.793 6.148-3.739 11.056-8.108 15.275-2.637 2.546-5.04 5.287-5.904 8.969-.405 1.722-1.374 2.576-3.047 2.987.312-.29-18.04 4.835-18.04 4.835a2.183 2.183 0 0 0-1.546 2.668l.048.179a2.193 2.193 0 0 0 2.677 1.54s21.058-5.64 21.334-5.718c1.95-.536 3.012-1.92 3.056-3.895.067-2.948 1.352-5.243 3.444-7.202 1.12-1.049 2.234-2.107 3.288-3.22 8.698-9.195 10.134-23.146 3.52-34.033Z"/></mask><path fill="#4859F0" d="m41.246 73.483-16.632 4.441a2.238 2.238 0 0 1-2.731-1.571 2.229 2.229 0 0 1 1.577-2.723l16.632-4.441a2.238 2.238 0 0 1 2.731 1.572 2.228 2.228 0 0 1-1.577 2.722Zm-7.7-50.94c-.15 2.02-1.296 3.159-3.077 3.13-1.773-.028-3.063-1.24-3.02-3.083.041-1.794 1.17-2.973 3.09-2.952 1.919.02 2.87 1.15 3.006 2.904Zm21.322-6.81C48.252 4.84 35.147-.452 22.972 3.093 12.318 6.197 5.371 13.208 2.845 23.991c-2.5 10.673.612 19.853 8.488 27.54 1.847 1.804 3.545 3.988 4.586 6.318 1.044 2.336 1.38 3.067 3.922 2.453 3.531-.851 7.015-1.898 10.546-2.752 1.81-.438 2.498-1.446 2.486-3.264-.049-7.34-.032-14.68-.005-22.02.005-1.661-.519-3.03-2.312-3.07-1.816-.043-2.372 1.28-2.357 2.973.042 4.759.013 9.518.013 14.277 0 7.655 0 7.655-7.553 8.755-2.871-3.279-5.486-6.227-8.058-9.21-9.234-10.708-7.545-26.537 3.979-34.735 8.28-5.89 17.173-6.218 26.04-1.245 8.234 4.618 12.714 14.132 11.526 23.336-.793 6.148-3.739 11.056-8.108 15.275-2.637 2.546-5.04 5.287-5.904 8.969-.405 1.722-1.374 2.576-3.047 2.987.312-.29-18.04 4.835-18.04 4.835a2.183 2.183 0 0 0-1.546 2.668l.048.179a2.193 2.193 0 0 0 2.677 1.54s21.058-5.64 21.334-5.718c1.95-.536 3.012-1.92 3.056-3.895.067-2.948 1.352-5.243 3.444-7.202 1.12-1.049 2.234-2.107 3.288-3.22 8.698-9.195 10.134-23.146 3.52-34.033Z"/><path stroke="#4859F0" stroke-width="2.4" d="m41.246 73.483-16.632 4.441a2.238 2.238 0 0 1-2.731-1.571 2.229 2.229 0 0 1 1.577-2.723l16.632-4.441a2.238 2.238 0 0 1 2.731 1.572 2.228 2.228 0 0 1-1.577 2.722Zm-7.7-50.94c-.15 2.02-1.296 3.159-3.077 3.13-1.773-.028-3.063-1.24-3.02-3.083.041-1.794 1.17-2.973 3.09-2.952 1.919.02 2.87 1.15 3.006 2.904Zm21.322-6.81C48.252 4.84 35.147-.452 22.972 3.093 12.318 6.197 5.371 13.208 2.845 23.991c-2.5 10.673.612 19.853 8.488 27.54 1.847 1.804 3.545 3.988 4.586 6.318 1.044 2.336 1.38 3.067 3.922 2.453 3.531-.851 7.015-1.898 10.546-2.752 1.81-.438 2.498-1.446 2.486-3.264-.049-7.34-.032-14.68-.005-22.02.005-1.661-.519-3.03-2.312-3.07-1.816-.043-2.372 1.28-2.357 2.973.042 4.759.013 9.518.013 14.277 0 7.655 0 7.655-7.553 8.755-2.871-3.279-5.486-6.227-8.058-9.21-9.234-10.708-7.545-26.537 3.979-34.735 8.28-5.89 17.173-6.218 26.04-1.245 8.234 4.618 12.714 14.132 11.526 23.336-.793 6.148-3.739 11.056-8.108 15.275-2.637 2.546-5.04 5.287-5.904 8.969-.405 1.722-1.374 2.576-3.047 2.987.312-.29-18.04 4.835-18.04 4.835a2.183 2.183 0 0 0-1.546 2.668l.048.179a2.193 2.193 0 0 0 2.677 1.54s21.058-5.64 21.334-5.718c1.95-.536 3.012-1.92 3.056-3.895.067-2.948 1.352-5.243 3.444-7.202 1.12-1.049 2.234-2.107 3.288-3.22 8.698-9.195 10.134-23.146 3.52-34.033Z" mask="url(#a)"/></svg>