<svg xmlns="http://www.w3.org/2000/svg" width="77" height="74" fill="none"><path fill="#4859F0" d="M43.12 61.6h12.32v12.32H43.12V61.6Zm21.56 0H77v12.32H64.68V61.6ZM43.12 40.04h12.32v12.32H43.12V40.04Zm21.56 0H77v12.32H64.68V40.04Z"/><path fill="#4859F0" d="M77 21.56H58.52V9.24c0-5.236-4.004-9.24-9.24-9.24H30.8c-5.236 0-9.24 4.004-9.24 9.24v12.32H3.08C1.232 21.56 0 22.792 0 24.64v.616l5.852 37.268c.308 3.08 3.08 5.236 6.16 5.236H36.96V61.6H12.012L6.776 27.72H77v-6.16ZM27.72 9.24c0-1.848 1.232-3.08 3.08-3.08h18.48c1.848 0 3.08 1.232 3.08 3.08v12.32H27.72V9.24Z"/></svg>